ffmpeg started on 2016-12-10 at 00:25:58
Report written to "Output/x264/results/ffmpeg/sintelplacebo12000k.log"
Command line:
Tools/ffmpeg/ffmpeg -benchmark -y -i Input/y4m/sintel.y4m -c:v libx264 -preset placebo -b:v 12000k -an Output/x264/encoded/sintelplacebo12000k.mkv
ffmpeg version N-82227-gdb23fde Copyright (c) 2000-2016 the FFmpeg developers
  built with gcc 5.4.0 (Ubuntu 5.4.0-6ubuntu1~16.04.2) 20160609
  configuration: --prefix=/home/jaroslav/ffmpeg_build --pkg-config-flags=--static --extra-cflags=-I/home/jaroslav/ffmpeg_build/include --extra-ldflags=-L/home/jaroslav/ffmpeg_build/lib --bindir=/home/jaroslav/bin --enable-gpl --enable-libass --enable-libfdk-aac --enable-libfreetype --enable-libmp3lame --enable-libopus --enable-libtheora --enable-libvorbis --enable-libvpx --enable-libx264 --enable-libx265 --enable-nvenc --enable-libmfx --enable-libxvid --enable-libgsm --enable-libopencore-amrnb --enable-version3 --enable-nonfree
  libavutil      55. 35.100 / 55. 35.100
  libavcodec     57. 66.101 / 57. 66.101
  libavformat    57. 57.100 / 57. 57.100
  libavdevice    57.  2.100 / 57.  2.100
  libavfilter     6. 66.100 /  6. 66.100
  libswscale      4.  3.100 /  4.  3.100
  libswresample   2.  4.100 /  2.  4.100
  libpostproc    54.  2.100 / 54.  2.100
Input #0, yuv4mpegpipe, from 'Input/y4m/sintel.y4m':
  Duration: 00:00:20.83, start: 0.000000, bitrate: 2057307 kb/s
    Stream #0:0: Video: rawvideo (I420 / 0x30323449), yuv420p(progressive), 4096x1744, SAR 1:1 DAR 256:109, 24 fps, 24 tbr, 24 tbn, 24 tbc
[libx264 @ 0x31471c0] using SAR=1/1
[libx264 @ 0x31471c0] DPB size (16 frames, 446464 mbs) > level limit (6 frames, 184320 mbs)
[libx264 @ 0x31471c0] using cpu capabilities: MMX2 SSE2Fast SSSE3 SSE4.2 AVX FMA3 AVX2 LZCNT BMI2
[libx264 @ 0x31471c0] profile High, level 5.2
[libx264 @ 0x31471c0] 264 - core 148 - H.264/MPEG-4 AVC codec - Copyleft 2003-2016 - http://www.videolan.org/x264.html - options: cabac=1 ref=16 deblock=1:0:0 analyse=0x3:0x133 me=tesa subme=11 psy=1 psy_rd=1.00:0.00 mixed_ref=1 me_range=24 chroma_me=1 trellis=2 8x8dct=1 cqm=0 deadzone=21,11 fast_pskip=0 chroma_qp_offset=-2 threads=6 lookahead_threads=1 sliced_threads=0 nr=0 decimate=1 interlaced=0 bluray_compat=0 constrained_intra=0 bframes=16 b_pyramid=2 b_adapt=2 b_bias=0 direct=3 weightb=1 open_gop=0 weightp=2 keyint=250 keyint_min=24 scenecut=40 intra_refresh=0 rc_lookahead=60 rc=abr mbtree=1 bitrate=12000 ratetol=1.0 qcomp=0.60 qpmin=0 qpmax=69 qpstep=4 ip_ratio=1.40 aq=1:1.00
Output #0, matroska, to 'Output/x264/encoded/sintelplacebo12000k.mkv':
  Metadata:
    encoder         : Lavf57.57.100
    Stream #0:0: Video: h264 (libx264) (H264 / 0x34363248), yuv420p, 4096x1744 [SAR 1:1 DAR 256:109], q=-1--1, 12000 kb/s, 24 fps, 1k tbn, 24 tbc
    Metadata:
      encoder         : Lavc57.66.101 libx264
    Side data:
      cpb: bitrate max/min/avg: 0/0/12000000 buffer size: 0 vbv_delay: -1
Stream mapping:
  Stream #0:0 -> #0:0 (rawvideo (native) -> h264 (libx264))
Press [q] to stop, [?] for help
frame=    7 fps=0.0 q=0.0 size=       0kB time=00:00:00.00 bitrate=N/A speed=   0x    frame=   15 fps= 13 q=0.0 size=       0kB time=00:00:00.00 bitrate=N/A speed=   0x    frame=   23 fps= 14 q=0.0 size=       0kB time=00:00:00.00 bitrate=N/A speed=   0x    frame=   31 fps= 14 q=0.0 size=       0kB time=00:00:00.00 bitrate=N/A speed=   0x    frame=   39 fps= 15 q=0.0 size=       0kB time=00:00:00.00 bitrate=N/A speed=   0x    frame=   47 fps= 15 q=0.0 size=       0kB time=00:00:00.00 bitrate=N/A speed=   0x    frame=   51 fps= 12 q=0.0 size=       0kB time=00:00:00.00 bitrate=N/A speed=   0x    frame=   52 fps=7.0 q=0.0 size=       0kB time=00:00:00.00 bitrate=N/A speed=   0x    frame=   53 fps=5.1 q=0.0 size=       0kB time=00:00:00.00 bitrate=N/A speed=   0x    frame=   61 fps=5.5 q=0.0 size=       0kB time=00:00:00.00 bitrate=N/A speed=   0x    frame=   66 fps=5.7 q=0.0 size=       0kB time=00:00:00.00 bitrate=N/A speed=   0x    frame=   74 fps=6.1 q=0.0 size=       0kB time=00:00:00.00 bitrate=N/A speed=   0x    frame=   82 fps=6.5 q=0.0 size=       0kB time=00:00:00.00 bitrate=N/A speed=   0x    frame=   84 fps=1.3 q=0.0 size=       0kB time=00:00:00.00 bitrate=N/A speed=   0x    frame=   86 fps=1.3 q=0.0 size=       0kB time=00:00:00.00 bitrate=N/A speed=   0x    frame=   88 fps=1.3 q=23.0 size=       1kB time=-00:00:00.08 bitrate=N/A speed=N/A    frame=   90 fps=1.2 q=28.0 size=       1kB time=00:00:00.00 bitrate=5888.0kbits/s speed=1.34e-05x    frame=   92 fps=1.2 q=35.0 size=       1kB time=00:00:00.08 bitrate=  70.1kbits/s speed=0.00109x    frame=   93 fps=1.1 q=40.0 size=       1kB time=00:00:00.12 bitrate=  46.7kbits/s speed=0.00149x    frame=   94 fps=1.1 q=39.0 size=       1kB time=00:00:00.16 bitrate=  35.0kbits/s speed=0.00195x    frame=   96 fps=1.1 q=40.0 size=       1kB time=00:00:00.25 bitrate=  23.5kbits/s speed=0.00286x    frame=   98 fps=1.1 q=40.0 size=       1kB time=00:00:00.33 bitrate=  17.6kbits/s speed=0.00377x    frame=   99 fps=1.0 q=40.0 size=       1kB time=00:00:00.37 bitrate=  15.7kbits/s speed=0.00386x    frame=  100 fps=1.0 q=40.0 size=       1kB time=00:00:00.41 bitrate=  14.1kbits/s speed=0.00425x    frame=  101 fps=1.0 q=40.0 size=       1kB time=00:00:00.45 bitrate=  12.8kbits/s speed=0.00455x    frame=  102 fps=1.0 q=40.0 size=       1kB time=00:00:00.50 bitrate=  11.8kbits/s speed=0.00491x    frame=  103 fps=1.0 q=40.0 size=       1kB time=00:00:00.54 bitrate=  10.8kbits/s speed=0.00523x    frame=  104 fps=1.0 q=40.0 size=       1kB time=00:00:00.58 bitrate=  10.1kbits/s speed=0.00549x    frame=  105 fps=0.9 q=40.0 size=       1kB time=00:00:00.62 bitrate=   9.4kbits/s speed=0.00547x    frame=  106 fps=0.9 q=40.0 size=       1kB time=00:00:00.66 bitrate=   8.8kbits/s speed=0.00562x    frame=  107 fps=0.9 q=40.0 size=       1kB time=00:00:00.70 bitrate=   8.3kbits/s speed=0.00589x    frame=  108 fps=0.9 q=40.0 size=       1kB time=00:00:00.75 bitrate=   7.8kbits/s speed=0.00617x    frame=  109 fps=0.9 q=39.0 size=       1kB time=00:00:00.79 bitrate=   7.4kbits/s speed=0.00638x    frame=  110 fps=0.9 q=39.0 size=       1kB time=00:00:00.83 bitrate=   7.1kbits/s speed=0.00654x    frame=  111 fps=0.8 q=39.0 size=       1kB time=00:00:00.87 bitrate=   6.7kbits/s speed=0.00644x    frame=  112 fps=0.8 q=39.0 size=       1kB time=00:00:00.91 bitrate=   6.4kbits/s speed=0.00648x    frame=  113 fps=0.8 q=39.0 size=       1kB time=00:00:00.95 bitrate=   6.1kbits/s speed=0.00662x    frame=  114 fps=0.8 q=39.0 size=       1kB time=00:00:01.00 bitrate=   5.9kbits/s speed=0.00681x    frame=  116 fps=0.8 q=39.0 size=       1kB time=00:00:01.08 bitrate=   5.4kbits/s speed=0.00727x    frame=  117 fps=0.7 q=39.0 size=       1kB time=00:00:01.12 bitrate=   5.2kbits/s speed=0.00722x    frame=  118 fps=0.7 q=39.0 size=       1kB time=00:00:01.16 bitrate=   5.0kbits/s speed=0.00719x    frame=  119 fps=0.7 q=38.0 size=       1kB time=00:00:01.20 bitrate=   4.9kbits/s speed=0.00728x    frame=  120 fps=0.7 q=38.0 size=       1kB time=00:00:01.25 bitrate=   4.7kbits/s speed=0.0074x    frame=  121 fps=0.7 q=38.0 size=       1kB time=00:00:01.29 bitrate=   4.6kbits/s speed=0.00753x    frame=  122 fps=0.7 q=38.0 size=       1kB time=00:00:01.33 bitrate=   4.4kbits/s speed=0.00767x    frame=  123 fps=0.7 q=38.0 size=       1kB time=00:00:01.37 bitrate=   4.3kbits/s speed=0.00775x    frame=  124 fps=0.7 q=38.0 size=       1kB time=00:00:01.41 bitrate=   4.2kbits/s speed=0.00763x    frame=  125 fps=0.7 q=38.0 size=       1kB time=00:00:01.45 bitrate=   4.0kbits/s speed=0.00768x    frame=  126 fps=0.7 q=38.0 size=       1kB time=00:00:01.50 bitrate=   3.9kbits/s speed=0.0078x    frame=  127 fps=0.7 q=38.0 size=       1kB time=00:00:01.54 bitrate=   3.8kbits/s speed=0.00793x    frame=  128 fps=0.6 q=38.0 size=       1kB time=00:00:01.58 bitrate=   3.7kbits/s speed=0.00802x    frame=  129 fps=0.6 q=38.0 size=       1kB time=00:00:01.62 bitrate=   3.6kbits/s speed=0.00813x    frame=  130 fps=0.6 q=37.0 size=       1kB time=00:00:01.66 bitrate=   3.5kbits/s speed=0.00801x    frame=  131 fps=0.6 q=37.0 size=       1kB time=00:00:01.70 bitrate=   3.4kbits/s speed=0.00812x    frame=  132 fps=0.6 q=37.0 size=       1kB time=00:00:01.75 bitrate=   3.4kbits/s speed=0.00817x    frame=  133 fps=0.6 q=37.0 size=       1kB time=00:00:01.79 bitrate=   3.3kbits/s speed=0.00826x    frame=  134 fps=0.6 q=37.0 size=       1kB time=00:00:01.83 bitrate=   3.2kbits/s speed=0.00835x    frame=  135 fps=0.6 q=37.0 size=       1kB time=00:00:01.87 bitrate=   3.1kbits/s speed=0.00837x    frame=  136 fps=0.6 q=37.0 size=       1kB time=00:00:01.91 bitrate=   3.1kbits/s speed=0.00828x    frame=  137 fps=0.6 q=37.0 size=       1kB time=00:00:01.95 bitrate=   3.0kbits/s speed=0.00836x    frame=  138 fps=0.6 q=37.0 size=       1kB time=00:00:02.00 bitrate=   2.9kbits/s speed=0.00846x    frame=  139 fps=0.6 q=37.0 size=       1kB time=00:00:02.04 bitrate=   2.9kbits/s speed=0.0084x    frame=  140 fps=0.6 q=37.0 size=       1kB time=00:00:02.08 bitrate=   2.8kbits/s speed=0.00846x    frame=  141 fps=0.6 q=37.0 size=       1kB time=00:00:02.12 bitrate=   2.8kbits/s speed=0.00847x    frame=  142 fps=0.6 q=37.0 size=       1kB time=00:00:02.16 bitrate=   2.7kbits/s speed=0.00841x    frame=  143 fps=0.5 q=37.0 size=       1kB time=00:00:02.20 bitrate=   2.7kbits/s speed=0.00847x    frame=  144 fps=0.5 q=37.0 size=       1kB time=00:00:02.25 bitrate=   2.6kbits/s speed=0.0085x    frame=  145 fps=0.5 q=37.0 size=       1kB time=00:00:02.29 bitrate=   2.6kbits/s speed=0.00855x    frame=  146 fps=0.5 q=37.0 size=       1kB time=00:00:02.33 bitrate=   2.5kbits/s speed=0.00855x    frame=  147 fps=0.5 q=37.0 size=       1kB time=00:00:02.37 bitrate=   2.5kbits/s speed=0.00859x    frame=  148 fps=0.5 q=37.0 size=       1kB time=00:00:02.41 bitrate=   2.4kbits/s speed=0.00853x    frame=  149 fps=0.5 q=37.0 size=       1kB time=00:00:02.45 bitrate=   2.4kbits/s speed=0.00857x    frame=  150 fps=0.5 q=37.0 size=       1kB time=00:00:02.50 bitrate=   2.4kbits/s speed=0.00864x    frame=  151 fps=0.5 q=36.0 size=       1kB time=00:00:02.54 bitrate=   2.3kbits/s speed=0.00863x    frame=  152 fps=0.5 q=36.0 size=       1kB time=00:00:02.58 bitrate=   2.3kbits/s speed=0.00869x    frame=  153 fps=0.5 q=36.0 size=       1kB time=00:00:02.62 bitrate=   2.2kbits/s speed=0.00875x    frame=  154 fps=0.5 q=36.0 size=       1kB time=00:00:02.66 bitrate=   2.2kbits/s speed=0.0086x    frame=  155 fps=0.5 q=36.0 size=       1kB time=00:00:02.70 bitrate=   2.2kbits/s speed=0.00868x    frame=  156 fps=0.5 q=36.0 size=       1kB time=00:00:02.75 bitrate=   2.1kbits/s speed=0.00874x    frame=  157 fps=0.5 q=36.0 size=       1kB time=00:00:02.79 bitrate=   2.1kbits/s speed=0.00883x    frame=  158 fps=0.5 q=36.0 size=       1kB time=00:00:02.83 bitrate=   2.1kbits/s speed=0.00891x    frame=  159 fps=0.5 q=36.0 size=       1kB time=00:00:02.87 bitrate=   2.0kbits/s speed=0.00898x    frame=  160 fps=0.5 q=36.0 size=       1kB time=00:00:02.91 bitrate=   2.0kbits/s speed=0.0088x    frame=  161 fps=0.5 q=36.0 size=       1kB time=00:00:02.95 bitrate=   2.0kbits/s speed=0.00886x    frame=  162 fps=0.5 q=36.0 size=       1kB time=00:00:03.00 bitrate=   2.0kbits/s speed=0.00893x    frame=  163 fps=0.5 q=36.0 size=       1kB time=00:00:03.04 bitrate=   1.9kbits/s speed=0.00899x    frame=  164 fps=0.5 q=36.0 size=    5149kB time=00:00:03.08 bitrate=13677.2kbits/s speed=0.00907x    frame=  165 fps=0.5 q=36.0 size=    5149kB time=00:00:03.12 bitrate=13493.4kbits/s speed=0.00914x    frame=  166 fps=0.5 q=35.0 size=    5149kB time=00:00:03.16 bitrate=13314.5kbits/s speed=0.00899x    frame=  167 fps=0.5 q=35.0 size=    5149kB time=00:00:03.20 bitrate=13144.4kbits/s speed=0.00905x    frame=  168 fps=0.5 q=35.0 size=    5149kB time=00:00:03.25 bitrate=12974.6kbits/s speed=0.00911x    frame=  169 fps=0.5 q=35.0 size=    5149kB time=00:00:03.29 bitrate=12809.1kbits/s speed=0.00916x    frame=  170 fps=0.5 q=35.0 size=    5149kB time=00:00:03.33 bitrate=12651.6kbits/s speed=0.00921x    frame=  171 fps=0.5 q=35.0 size=    5149kB time=00:00:03.37 bitrate=12494.2kbits/s speed=0.00925x    frame=  172 fps=0.5 q=35.0 size=    5149kB time=00:00:03.41 bitrate=12340.7kbits/s speed=0.00913x    frame=  173 fps=0.5 q=35.0 size=    5149kB time=00:00:03.45 bitrate=12194.4kbits/s speed=0.00918x    frame=  174 fps=0.5 q=35.0 size=    5149kB time=00:00:03.50 bitrate=12048.1kbits/s speed=0.00922x    frame=  175 fps=0.5 q=35.0 size=    5149kB time=00:00:03.54 bitrate=11905.3kbits/s speed=0.00925x    frame=  176 fps=0.5 q=35.0 size=    5149kB time=00:00:03.58 bitrate=11769.1kbits/s speed=0.00929x    frame=  177 fps=0.5 q=35.0 size=    5149kB time=00:00:03.62 bitrate=11632.8kbits/s speed=0.00934x    frame=  178 fps=0.4 q=35.0 size=    5149kB time=00:00:03.66 bitrate=11499.6kbits/s speed=0.00925x    frame=  179 fps=0.4 q=35.0 size=    5149kB time=00:00:03.70 bitrate=11372.5kbits/s speed=0.00924x    frame=  180 fps=0.4 q=35.0 size=    5149kB time=00:00:03.75 bitrate=11245.1kbits/s speed=0.00929x    frame=  181 fps=0.4 q=35.0 size=    5149kB time=00:00:03.79 bitrate=11120.6kbits/s speed=0.00934x    frame=  182 fps=0.4 q=35.0 size=    5149kB time=00:00:03.83 bitrate=11001.7kbits/s speed=0.00936x    frame=  183 fps=0.4 q=35.0 size=    5149kB time=00:00:03.87 bitrate=10882.5kbits/s speed=0.0094x    frame=  184 fps=0.4 q=35.0 size=    5149kB time=00:00:03.91 bitrate=10765.8kbits/s speed=0.0093x    frame=  185 fps=0.4 q=35.0 size=    5149kB time=00:00:03.95 bitrate=10654.3kbits/s speed=0.00933x    frame=  186 fps=0.4 q=35.0 size=    5149kB time=00:00:04.00 bitrate=10542.5kbits/s speed=0.00935x    frame=  187 fps=0.4 q=34.0 size=    5149kB time=00:00:04.04 bitrate=10433.0kbits/s speed=0.00939x    frame=  188 fps=0.4 q=35.0 size=    5149kB time=00:00:04.08 bitrate=10328.2kbits/s speed=0.00944x    frame=  189 fps=0.4 q=34.0 size=    5149kB time=00:00:04.12 bitrate=10223.1kbits/s speed=0.00944x    frame=  190 fps=0.4 q=34.0 size=    5149kB time=00:00:04.16 bitrate=10120.1kbits/s speed=0.00951x    frame=  191 fps=0.4 q=34.0 size=    5149kB time=00:00:04.20 bitrate=10021.5kbits/s speed=0.00943x    frame=  192 fps=0.4 q=34.0 size=    5149kB time=00:00:04.25 bitrate=9922.5kbits/s speed=0.00949x    frame=  193 fps=0.4 q=34.0 size=    5149kB time=00:00:04.29 bitrate=9825.4kbits/s speed=0.0095x    frame=  194 fps=0.4 q=34.0 size=    5149kB time=00:00:04.33 bitrate=9732.5kbits/s speed=0.00957x    frame=  195 fps=0.4 q=34.0 size=    5149kB time=00:00:04.37 bitrate=9639.0kbits/s speed=0.00955x    frame=  196 fps=0.4 q=34.0 size=    5149kB time=00:00:04.41 bitrate=9547.4kbits/s speed=0.00961x    frame=  197 fps=0.4 q=34.0 size=    5149kB time=00:00:04.45 bitrate=9459.6kbits/s speed=0.00956x    frame=  198 fps=0.4 q=34.0 size=    5149kB time=00:00:04.50 bitrate=9371.3kbits/s speed=0.00959x    frame=  199 fps=0.4 q=34.0 size=    5149kB time=00:00:04.54 bitrate=9284.7kbits/s speed=0.00962x    frame=  200 fps=0.4 q=34.0 size=    5149kB time=00:00:04.58 bitrate=9201.7kbits/s speed=0.00965x    frame=  201 fps=0.4 q=34.0 size=    5149kB time=00:00:04.62 bitrate=9118.1kbits/s speed=0.00965x    frame=  202 fps=0.4 q=34.0 size=    5149kB time=00:00:04.66 bitrate=9036.1kbits/s speed=0.00967x    frame=  203 fps=0.4 q=34.0 size=    5149kB time=00:00:04.70 bitrate=8957.4kbits/s speed=0.00969x    frame=  204 fps=0.4 q=34.0 size=    5149kB time=00:00:04.75 bitrate=8878.2kbits/s speed=0.00953x    frame=  205 fps=0.4 q=34.0 size=    5149kB time=00:00:04.79 bitrate=8800.4kbits/s speed=0.00957x    frame=  206 fps=0.4 q=34.0 size=    5149kB time=00:00:04.83 bitrate=8725.8kbits/s speed=0.00958x    frame=  207 fps=0.4 q=34.0 size=    5149kB time=00:00:04.87 bitrate=8650.6kbits/s speed=0.00963x    frame=  208 fps=0.4 q=34.0 size=    5149kB time=00:00:04.91 bitrate=8576.7kbits/s speed=0.00968x    frame=  209 fps=0.4 q=34.0 size=    5149kB time=00:00:04.95 bitrate=8505.8kbits/s speed=0.00972x    frame=  210 fps=0.4 q=34.0 size=    5149kB time=00:00:05.00 bitrate=8434.4kbits/s speed=0.00975x    frame=  211 fps=0.4 q=34.0 size=    5149kB time=00:00:05.04 bitrate=8364.2kbits/s speed=0.00963x    frame=  212 fps=0.4 q=34.0 size=    5149kB time=00:00:05.08 bitrate=8296.7kbits/s speed=0.00961x    frame=  213 fps=0.4 q=34.0 size=    5149kB time=00:00:05.12 bitrate=8228.7kbits/s speed=0.00964x    frame=  214 fps=0.4 q=34.0 size=    5149kB time=00:00:05.16 bitrate=8161.8kbits/s speed=0.00967x    frame=  215 fps=0.4 q=34.0 size=    5149kB time=00:00:05.20 bitrate=8097.6kbits/s speed=0.00969x    frame=  216 fps=0.4 q=34.0 size=    5149kB time=00:00:05.25 bitrate=8032.8kbits/s speed=0.00972x    frame=  217 fps=0.4 q=34.0 size=    5149kB time=00:00:05.29 bitrate=7969.1kbits/s speed=0.00966x    frame=  218 fps=0.4 q=34.0 size=    5149kB time=00:00:05.33 bitrate=7907.8kbits/s speed=0.00965x    frame=  219 fps=0.4 q=34.0 size=    5149kB time=00:00:05.37 bitrate=7846.1kbits/s speed=0.00967x    frame=  220 fps=0.4 q=34.0 size=    5149kB time=00:00:05.41 bitrate=7785.2kbits/s speed=0.00968x    frame=  221 fps=0.4 q=34.0 size=    5149kB time=00:00:05.45 bitrate=7726.8kbits/s speed=0.00972x    frame=  222 fps=0.4 q=34.0 size=    5149kB time=00:00:05.50 bitrate=7667.8kbits/s speed=0.00975x    frame=  223 fps=0.4 q=34.0 size=    5149kB time=00:00:05.54 bitrate=7609.7kbits/s speed=0.00968x    frame=  224 fps=0.4 q=34.0 size=    5149kB time=00:00:05.58 bitrate=7553.8kbits/s speed=0.0097x    frame=  225 fps=0.4 q=34.0 size=    5149kB time=00:00:05.62 bitrate=7497.4kbits/s speed=0.00971x    frame=  226 fps=0.4 q=34.0 size=    5149kB time=00:00:05.66 bitrate=7441.9kbits/s speed=0.00973x    frame=  227 fps=0.4 q=34.0 size=    5149kB time=00:00:05.70 bitrate=7388.4kbits/s speed=0.00974x    frame=  228 fps=0.4 q=34.0 size=    5149kB time=00:00:05.75 bitrate=7334.5kbits/s speed=0.00977x    frame=  229 fps=0.4 q=34.0 size=    5149kB time=00:00:05.79 bitrate=7281.3kbits/s speed=0.00975x    frame=  230 fps=0.4 q=34.0 size=    5149kB time=00:00:05.83 bitrate=7230.1kbits/s speed=0.00975x    frame=  231 fps=0.4 q=33.0 size=    5149kB time=00:00:05.87 bitrate=7178.4kbits/s speed=0.00974x    frame=  232 fps=0.4 q=33.0 size=    5149kB time=00:00:05.91 bitrate=7127.5kbits/s speed=0.00976x    frame=  233 fps=0.4 q=33.0 size=    5149kB time=00:00:05.95 bitrate=7078.4kbits/s speed=0.00978x    frame=  234 fps=0.4 q=33.0 size=    5149kB time=00:00:06.00 bitrate=7028.9kbits/s speed=0.00981x    frame=  235 fps=0.4 q=33.0 size=    5149kB time=00:00:06.04 bitrate=6980.0kbits/s speed=0.00981x    frame=  236 fps=0.4 q=33.0 size=    5149kB time=00:00:06.08 bitrate=6933.0kbits/s speed=0.00981x    frame=  237 fps=0.4 q=33.0 size=    5149kB time=00:00:06.12 bitrate=6885.5kbits/s speed=0.00981x    frame=  238 fps=0.4 q=33.0 size=    5149kB time=00:00:06.16 bitrate=6838.6kbits/s speed=0.00983x    frame=  239 fps=0.4 q=33.0 size=    5149kB time=00:00:06.20 bitrate=6793.4kbits/s speed=0.00984x    frame=  240 fps=0.4 q=33.0 size=    5149kB time=00:00:06.25 bitrate=6747.8kbits/s speed=0.00989x    frame=  241 fps=0.4 q=33.0 size=    5149kB time=00:00:06.29 bitrate=6702.8kbits/s speed=0.00992x    frame=  242 fps=0.4 q=33.0 size=    5149kB time=00:00:06.33 bitrate=6659.4kbits/s speed=0.00996x    frame=  243 fps=0.4 q=33.0 size=    5149kB time=00:00:06.37 bitrate=6615.5kbits/s speed=0.01x    frame=  245 fps=0.4 q=33.0 size=    5149kB time=00:00:06.45 bitrate=6530.5kbits/s speed=0.00988x    frame=  246 fps=0.4 q=33.0 size=    5149kB time=00:00:06.50 bitrate=6488.3kbits/s speed=0.00991x    frame=  247 fps=0.4 q=33.0 size=    5149kB time=00:00:06.54 bitrate=6446.7kbits/s speed=0.00994x    frame=  248 fps=0.4 q=33.0 size=    5149kB time=00:00:06.58 bitrate=6406.5kbits/s speed=0.00996x    frame=  249 fps=0.4 q=33.0 size=    5149kB time=00:00:06.62 bitrate=6365.9kbits/s speed=0.00999x    frame=  250 fps=0.4 q=33.0 size=    5149kB time=00:00:06.66 bitrate=6325.8kbits/s speed=0.01x    frame=  251 fps=0.4 q=33.0 size=    5149kB time=00:00:06.70 bitrate=6287.1kbits/s speed=0.00992x    frame=  252 fps=0.4 q=33.0 size=    5149kB time=00:00:06.75 bitrate=6248.0kbits/s speed=0.00995x    frame=  253 fps=0.4 q=33.0 size=    5149kB time=00:00:06.79 bitrate=6209.4kbits/s speed=0.00996x    frame=  254 fps=0.4 q=33.0 size=    5149kB time=00:00:06.83 bitrate=6172.1kbits/s speed=0.00997x    frame=  255 fps=0.4 q=33.0 size=    5149kB time=00:00:06.87 bitrate=6134.4kbits/s speed=0.00998x    frame=  256 fps=0.4 q=33.0 size=    5149kB time=00:00:06.91 bitrate=6097.2kbits/s speed=0.01x    frame=  257 fps=0.4 q=33.0 size=    5149kB time=00:00:06.95 bitrate=6061.3kbits/s speed=0.00993x    frame=  258 fps=0.4 q=33.0 size=    5149kB time=00:00:07.00 bitrate=6024.9kbits/s speed=0.00995x    frame=  259 fps=0.4 q=33.0 size=    5149kB time=00:00:07.04 bitrate=5989.0kbits/s speed=0.00997x    frame=  260 fps=0.4 q=33.0 size=    5149kB time=00:00:07.08 bitrate=5954.3kbits/s speed=0.00997x    frame=  261 fps=0.4 q=33.0 size=    5149kB time=00:00:07.12 bitrate=5919.2kbits/s speed=0.00998x    frame=  262 fps=0.4 q=33.0 size=    5149kB time=00:00:07.16 bitrate=5884.5kbits/s speed=0.01x    frame=  263 fps=0.4 q=33.0 size=    5149kB time=00:00:07.20 bitrate=5851.1kbits/s speed=0.00993x    frame=  264 fps=0.4 q=33.0 size=    5149kB time=00:00:07.25 bitrate=5817.2kbits/s speed=0.00995x    frame=  265 fps=0.4 q=33.0 size=    5149kB time=00:00:07.29 bitrate=5783.7kbits/s speed=0.00997x    frame=  266 fps=0.4 q=33.0 size=    5149kB time=00:00:07.33 bitrate=5751.4kbits/s speed=0.00999x    frame=  267 fps=0.4 q=33.0 size=    5149kB time=00:00:07.37 bitrate=5718.6kbits/s speed=0.00999x    frame=  268 fps=0.4 q=33.0 size=    5149kB time=00:00:07.41 bitrate=5686.2kbits/s speed=0.01x    frame=  269 fps=0.4 q=33.0 size=   10303kB time=00:00:07.45 bitrate=11316.0kbits/s speed=0.00995x    frame=  270 fps=0.4 q=33.0 size=   10303kB time=00:00:07.50 bitrate=11252.7kbits/s speed=0.00997x    frame=  271 fps=0.4 q=33.0 size=   10303kB time=00:00:07.54 bitrate=11190.0kbits/s speed=0.00999x    frame=  272 fps=0.4 q=33.0 size=   10303kB time=00:00:07.58 bitrate=11129.5kbits/s speed=0.00995x    frame=  273 fps=0.4 q=33.0 size=   10303kB time=00:00:07.62 bitrate=11068.2kbits/s speed=0.00996x    frame=  274 fps=0.4 q=33.0 size=   10303kB time=00:00:07.66 bitrate=11007.6kbits/s speed=0.00999x    frame=  276 fps=0.4 q=32.0 size=   10303kB time=00:00:07.75 bitrate=10889.7kbits/s speed=0.01x    frame=  277 fps=0.4 q=32.0 size=   10303kB time=00:00:07.79 bitrate=10831.0kbits/s speed=0.01x    frame=  278 fps=0.4 q=32.0 size=   10303kB time=00:00:07.83 bitrate=10774.3kbits/s speed=0.0101x    frame=  279 fps=0.4 q=32.0 size=   10303kB time=00:00:07.87 bitrate=10716.9kbits/s speed=0.01x    frame=  280 fps=0.4 q=32.0 size=   10303kB time=00:00:07.91 bitrate=10660.0kbits/s speed=0.01x    frame=  281 fps=0.4 q=32.0 size=   10303kB time=00:00:07.95 bitrate=10605.1kbits/s speed=0.0101x    frame=  282 fps=0.4 q=32.0 size=   10303kB time=00:00:08.00 bitrate=10549.4kbits/s speed=0.0101x    frame=  283 fps=0.4 q=32.0 size=   10303kB time=00:00:08.04 bitrate=10494.4kbits/s speed=0.0101x    frame=  284 fps=0.4 q=32.0 size=   10303kB time=00:00:08.08 bitrate=10441.1kbits/s speed=0.0101x    frame=  285 fps=0.4 q=32.0 size=   10303kB time=00:00:08.12 bitrate=10387.2kbits/s speed=0.01x    frame=  286 fps=0.4 q=32.0 size=   10303kB time=00:00:08.16 bitrate=10333.8kbits/s speed=0.0101x    frame=  287 fps=0.4 q=32.0 size=   10303kB time=00:00:08.20 bitrate=10282.1kbits/s speed=0.01x    frame=  288 fps=0.4 q=32.0 size=   10303kB time=00:00:08.25 bitrate=10229.8kbits/s speed=0.0101x    frame=  289 fps=0.4 q=32.0 size=   10303kB time=00:00:08.29 bitrate=10178.0kbits/s speed=0.0101x    frame=  290 fps=0.4 q=32.0 size=   10303kB time=00:00:08.33 bitrate=10127.9kbits/s speed=0.0101x    frame=  291 fps=0.3 q=32.0 size=   10303kB time=00:00:08.37 bitrate=10077.1kbits/s speed=0.01x    frame=  292 fps=0.3 q=32.0 size=   10303kB time=00:00:08.41 bitrate=10026.9kbits/s speed=0.01x    frame=  293 fps=0.3 q=32.0 size=   10303kB time=00:00:08.45 bitrate=9978.3kbits/s speed=0.01x    frame=  294 fps=0.3 q=32.0 size=   10303kB time=00:00:08.50 bitrate=9929.0kbits/s speed=0.01x    frame=  295 fps=0.3 q=32.0 size=   10303kB time=00:00:08.54 bitrate=9880.2kbits/s speed=0.0101x    frame=  296 fps=0.3 q=32.0 size=   10303kB time=00:00:08.58 bitrate=9833.0kbits/s speed=0.0101x    frame=  297 fps=0.3 q=32.0 size=   10303kB time=00:00:08.62 bitrate=9785.1kbits/s speed=0.01x    frame=  298 fps=0.3 q=32.0 size=   10303kB time=00:00:08.66 bitrate=9737.7kbits/s speed=0.0101x    frame=  299 fps=0.3 q=32.0 size=   10303kB time=00:00:08.70 bitrate=9691.8kbits/s speed=0.01x    frame=  300 fps=0.3 q=32.0 size=   10303kB time=00:00:08.75 bitrate=9645.3kbits/s speed=0.01x    frame=  301 fps=0.3 q=32.0 size=   10303kB time=00:00:08.79 bitrate=9599.2kbits/s speed=0.0101x    frame=  302 fps=0.3 q=32.0 size=   10303kB time=00:00:08.83 bitrate=9554.7kbits/s speed=0.0101x    frame=  303 fps=0.3 q=32.0 size=   10303kB time=00:00:08.87 bitrate=9509.5kbits/s speed=0.0101x    frame=  304 fps=0.3 q=32.0 size=   10303kB time=00:00:08.91 bitrate=9464.7kbits/s speed=0.0101x    frame=  305 fps=0.3 q=32.0 size=   10303kB time=00:00:08.95 bitrate=9421.4kbits/s speed=0.0101x    frame=  306 fps=0.3 q=32.0 size=   10303kB time=00:00:09.00 bitrate=9377.4kbits/s speed=0.0101x    frame=  307 fps=0.3 q=32.0 size=   10303kB time=00:00:09.04 bitrate=9333.9kbits/s speed=0.0101x    frame=  308 fps=0.3 q=32.0 size=   10303kB time=00:00:09.08 bitrate=9291.7kbits/s speed=0.0101x    frame=  309 fps=0.3 q=32.0 size=   10303kB time=00:00:09.12 bitrate=9249.0kbits/s speed=0.0101x    frame=  310 fps=0.3 q=32.0 size=   10303kB time=00:00:09.16 bitrate=9206.6kbits/s speed=0.0101x    frame=  311 fps=0.3 q=32.0 size=   10303kB time=00:00:09.20 bitrate=9165.6kbits/s speed=0.0101x    frame=  312 fps=0.3 q=32.0 size=   10303kB time=00:00:09.25 bitrate=9124.0kbits/s speed=0.0102x    frame=  314 fps=0.3 q=32.0 size=   10303kB time=00:00:09.33 bitrate=9042.9kbits/s speed=0.0101x    frame=  315 fps=0.3 q=32.0 size=   10303kB time=00:00:09.37 bitrate=9002.4kbits/s speed=0.0101x    frame=  316 fps=0.3 q=32.0 size=   10303kB time=00:00:09.41 bitrate=8962.2kbits/s speed=0.0102x    frame=  319 fps=0.3 q=32.0 size=   10303kB time=00:00:09.54 bitrate=8844.8kbits/s speed=0.0103x    frame=  320 fps=0.3 q=32.0 size=   10303kB time=00:00:09.58 bitrate=8807.0kbits/s speed=0.0103x    frame=  321 fps=0.3 q=32.0 size=   10303kB time=00:00:09.62 bitrate=8768.6kbits/s speed=0.0102x    frame=  322 fps=0.3 q=32.0 size=   10303kB time=00:00:09.66 bitrate=8730.5kbits/s speed=0.0102x    frame=  323 fps=0.3 q=32.0 size=   10303kB time=00:00:09.70 bitrate=8693.6kbits/s speed=0.0102x    frame=  324 fps=0.3 q=32.0 size=   10303kB time=00:00:09.75 bitrate=8656.2kbits/s speed=0.0103x    frame=  325 fps=0.3 q=32.0 size=   10303kB time=00:00:09.79 bitrate=8619.0kbits/s speed=0.0103x    frame=  326 fps=0.3 q=32.0 size=   10303kB time=00:00:09.83 bitrate=8583.1kbits/s speed=0.0103x    frame=  327 fps=0.3 q=32.0 size=   10303kB time=00:00:09.87 bitrate=8546.6kbits/s speed=0.0103x    frame=  328 fps=0.3 q=32.0 size=   10303kB time=00:00:09.91 bitrate=8510.4kbits/s speed=0.0102x    frame=  329 fps=0.3 q=32.0 size=   10303kB time=00:00:09.95 bitrate=8475.4kbits/s speed=0.0102x    frame=  330 fps=0.3 q=31.0 size=   10303kB time=00:00:10.00 bitrate=8439.8kbits/s speed=0.0103x    frame=  331 fps=0.3 q=31.0 size=   10303kB time=00:00:10.04 bitrate=8404.5kbits/s speed=0.0103x    frame=  332 fps=0.3 q=31.0 size=   10303kB time=00:00:10.08 bitrate=8370.3kbits/s speed=0.0103x    frame=  333 fps=0.3 q=29.0 size=   10303kB time=00:00:10.12 bitrate=8335.6kbits/s speed=0.0104x    frame=  334 fps=0.3 q=32.0 size=   10303kB time=00:00:10.16 bitrate=8301.2kbits/s speed=0.0103x    frame=  335 fps=0.3 q=32.0 size=   10303kB time=00:00:10.20 bitrate=8267.8kbits/s speed=0.0103x    frame=  336 fps=0.3 q=32.0 size=   10303kB time=00:00:10.25 bitrate=8233.9kbits/s speed=0.0103x    frame=  337 fps=0.3 q=32.0 size=   10303kB time=00:00:10.29 bitrate=8200.3kbits/s speed=0.0103x    frame=  338 fps=0.3 q=31.0 size=   13856kB time=00:00:10.33 bitrate=10983.7kbits/s speed=0.0104x    frame=  343 fps=0.3 q=31.0 size=   13856kB time=00:00:10.54 bitrate=10765.9kbits/s speed=0.0106x    frame=  344 fps=0.3 q=31.0 size=   13856kB time=00:00:10.58 bitrate=10724.2kbits/s speed=0.0106x    frame=  345 fps=0.3 q=31.0 size=   13856kB time=00:00:10.62 bitrate=10681.8kbits/s speed=0.0106x    frame=  346 fps=0.3 q=31.0 size=   13856kB time=00:00:10.66 bitrate=10639.8kbits/s speed=0.0106x    frame=  347 fps=0.3 q=31.0 size=   13856kB time=00:00:10.70 bitrate=10599.1kbits/s speed=0.0106x    frame=  348 fps=0.3 q=29.0 size=   13856kB time=00:00:10.75 bitrate=10557.6kbits/s speed=0.0107x    frame=  349 fps=0.3 q=31.0 size=   13856kB time=00:00:10.79 bitrate=10516.6kbits/s speed=0.0107x    frame=  350 fps=0.3 q=31.0 size=   13856kB time=00:00:10.83 bitrate=10476.8kbits/s speed=0.0107x    frame=  351 fps=0.3 q=31.0 size=   13856kB time=00:00:10.87 bitrate=10436.3kbits/s speed=0.0107x    frame=  353 fps=0.3 q=31.0 size=   13856kB time=00:00:10.95 bitrate=10357.3kbits/s speed=0.0108x    frame=  355 fps=0.3 q=31.0 size=   13856kB time=00:00:11.04 bitrate=10278.5kbits/s speed=0.0108x    frame=  357 fps=0.3 q=31.0 size=   13856kB time=00:00:11.12 bitrate=10201.8kbits/s speed=0.0109x    frame=  358 fps=0.3 q=31.0 size=   13856kB time=00:00:11.16 bitrate=10163.4kbits/s speed=0.0109x    frame=  359 fps=0.3 q=31.0 size=   13856kB time=00:00:11.20 bitrate=10126.3kbits/s speed=0.0109x    frame=  360 fps=0.3 q=31.0 size=   13856kB time=00:00:11.25 bitrate=10088.5kbits/s speed=0.0109x    frame=  361 fps=0.3 q=31.0 size=   13856kB time=00:00:11.29 bitrate=10050.9kbits/s speed=0.0109x    frame=  362 fps=0.3 q=31.0 size=   13856kB time=00:00:11.33 bitrate=10014.6kbits/s speed=0.0109x    frame=  363 fps=0.3 q=31.0 size=   13856kB time=00:00:11.37 bitrate=9977.6kbits/s speed=0.0109x    frame=  365 fps=0.3 q=31.0 size=   13856kB time=00:00:11.45 bitrate=9905.3kbits/s speed=0.0109x    frame=  366 fps=0.3 q=31.0 size=   13856kB time=00:00:11.50 bitrate=9869.2kbits/s speed=0.011x    frame=  367 fps=0.3 q=31.0 size=   13856kB time=00:00:11.54 bitrate=9833.3kbits/s speed=0.011x    frame=  369 fps=0.3 q=31.0 size=   13856kB time=00:00:11.62 bitrate=9763.1kbits/s speed=0.011x    frame=  370 fps=0.3 q=31.0 size=   13856kB time=00:00:11.66 bitrate=9727.9kbits/s speed=0.011x    frame=  371 fps=0.3 q=31.0 size=   13856kB time=00:00:11.70 bitrate=9693.8kbits/s speed=0.011x    frame=  372 fps=0.3 q=31.0 size=   13856kB time=00:00:11.75 bitrate=9659.2kbits/s speed=0.011x    frame=  373 fps=0.3 q=31.0 size=   13856kB time=00:00:11.79 bitrate=9624.8kbits/s speed=0.011x    frame=  374 fps=0.3 q=31.0 size=   13856kB time=00:00:11.83 bitrate=9591.5kbits/s speed=0.0111x    frame=  376 fps=0.3 q=31.0 size=   13856kB time=00:00:11.91 bitrate=9523.9kbits/s speed=0.0111x    frame=  377 fps=0.3 q=31.0 size=   13856kB time=00:00:11.95 bitrate=9491.2kbits/s speed=0.0111x    frame=  378 fps=0.3 q=31.0 size=   13856kB time=00:00:12.00 bitrate=9458.0kbits/s speed=0.0111x    frame=  380 fps=0.3 q=31.0 size=   13856kB time=00:00:12.08 bitrate=9393.0kbits/s speed=0.0111x    frame=  381 fps=0.3 q=30.0 size=   13856kB time=00:00:12.12 bitrate=9360.5kbits/s speed=0.0111x    frame=  382 fps=0.4 q=30.0 size=   13856kB time=00:00:12.16 bitrate=9328.2kbits/s speed=0.0112x    frame=  385 fps=0.4 q=30.0 size=   13856kB time=00:00:12.29 bitrate=9233.3kbits/s speed=0.0112x    frame=  386 fps=0.4 q=30.0 size=   13856kB time=00:00:12.33 bitrate=9202.6kbits/s speed=0.0112x    frame=  387 fps=0.4 q=30.0 size=   13856kB time=00:00:12.37 bitrate=9171.4kbits/s speed=0.0112x    frame=  388 fps=0.4 q=30.0 size=   13856kB time=00:00:12.41 bitrate=9140.4kbits/s speed=0.0112x    frame=  389 fps=0.4 q=30.0 size=   13856kB time=00:00:12.45 bitrate=9110.3kbits/s speed=0.0113x    frame=  390 fps=0.4 q=30.0 size=   13856kB time=00:00:12.50 bitrate=9079.7kbits/s speed=0.0113x    frame=  394 fps=0.4 q=30.0 size=   13856kB time=00:00:12.66 bitrate=8960.0kbits/s speed=0.0113x    frame=  395 fps=0.4 q=30.0 size=   13856kB time=00:00:12.70 bitrate=8931.1kbits/s speed=0.0113x    frame=  396 fps=0.4 q=30.0 size=   13856kB time=00:00:12.75 bitrate=8901.7kbits/s speed=0.0114x    frame=  400 fps=0.4 q=30.0 size=   13856kB time=00:00:12.91 bitrate=8786.6kbits/s speed=0.0114x    frame=  401 fps=0.4 q=30.0 size=   13856kB time=00:00:12.95 bitrate=8758.8kbits/s speed=0.0114x    frame=  403 fps=0.4 q=30.0 size=   13856kB time=00:00:13.04 bitrate=8702.4kbits/s speed=0.0115x    frame=  406 fps=0.4 q=29.0 size=   13856kB time=00:00:13.16 bitrate=8619.8kbits/s speed=0.0115x    frame=  407 fps=0.4 q=29.0 size=   13856kB time=00:00:13.20 bitrate=8593.0kbits/s speed=0.0115x    frame=  408 fps=0.4 q=29.0 size=   13856kB time=00:00:13.25 bitrate=8565.8kbits/s speed=0.0115x    frame=  411 fps=0.4 q=29.0 size=   13856kB time=00:00:13.37 bitrate=8485.7kbits/s speed=0.0116x    frame=  412 fps=0.4 q=29.0 size=   13856kB time=00:00:13.41 bitrate=8459.2kbits/s speed=0.0116x    frame=  413 fps=0.4 q=29.0 size=   13856kB time=00:00:13.45 bitrate=8433.4kbits/s speed=0.0116x    frame=  416 fps=0.4 q=29.0 size=   13856kB time=00:00:13.58 bitrate=8355.8kbits/s speed=0.0116x    frame=  418 fps=0.4 q=29.0 size=   13856kB time=00:00:13.66 bitrate=8304.5kbits/s speed=0.0117x    frame=  421 fps=0.4 q=29.0 size=   13856kB time=00:00:13.79 bitrate=8229.2kbits/s speed=0.0117x    frame=  422 fps=0.4 q=29.0 size=   13856kB time=00:00:13.83 bitrate=8204.8kbits/s speed=0.0117x    frame=  423 fps=0.4 q=29.0 size=   13856kB time=00:00:13.87 bitrate=8180.0kbits/s speed=0.0118x    frame=  426 fps=0.4 q=29.0 size=   13856kB time=00:00:14.00 bitrate=8106.9kbits/s speed=0.0118x    frame=  428 fps=0.4 q=29.0 size=   13856kB time=00:00:14.08 bitrate=8059.2kbits/s speed=0.0118x    frame=  432 fps=0.4 q=28.0 size=   13856kB time=00:00:14.25 bitrate=7964.7kbits/s speed=0.0119x    frame=  433 fps=0.4 q=28.0 size=   13856kB time=00:00:14.29 bitrate=7941.3kbits/s speed=0.0119x    frame=  434 fps=0.4 q=28.0 size=   13856kB time=00:00:14.33 bitrate=7918.6kbits/s speed=0.0119x    frame=  437 fps=0.4 q=28.0 size=   13856kB time=00:00:14.45 bitrate=7850.1kbits/s speed=0.012x    frame=  438 fps=0.4 q=28.0 size=   13856kB time=00:00:14.50 bitrate=7827.4kbits/s speed=0.0119x    frame=  439 fps=0.4 q=28.0 size=   13856kB time=00:00:14.54 bitrate=7804.8kbits/s speed=0.012x    frame=  441 fps=0.4 q=28.0 size=   13856kB time=00:00:14.62 bitrate=7760.5kbits/s speed=0.012x    frame=  444 fps=0.4 q=28.0 size=   13856kB time=00:00:14.75 bitrate=7694.8kbits/s speed=0.012x    frame=  445 fps=0.4 q=28.0 size=   13856kB time=00:00:14.79 bitrate=7672.9kbits/s speed=0.012x    frame=  446 fps=0.4 q=28.0 size=   13856kB time=00:00:14.83 bitrate=7651.7kbits/s speed=0.0121x    frame=  448 fps=0.4 q=28.0 size=   13856kB time=00:00:14.91 bitrate=7608.6kbits/s speed=0.012x    frame=  449 fps=0.4 q=28.0 size=   13856kB time=00:00:14.95 bitrate=7587.8kbits/s speed=0.0121x    frame=  451 fps=0.4 q=28.0 size=   13856kB time=00:00:15.04 bitrate=7545.4kbits/s speed=0.0121x    frame=  452 fps=0.4 q=28.0 size=   13856kB time=00:00:15.08 bitrate=7524.9kbits/s speed=0.0121x    frame=  453 fps=0.4 q=28.0 size=   13856kB time=00:00:15.12 bitrate=7504.0kbits/s speed=0.0121x    frame=  454 fps=0.4 q=28.0 size=   13856kB time=00:00:15.16 bitrate=7483.2kbits/s speed=0.0121x    frame=  455 fps=0.4 q=28.0 size=   13856kB time=00:00:15.20 bitrate=7463.0kbits/s speed=0.0121x    frame=  456 fps=0.4 q=28.0 size=   13856kB time=00:00:15.25 bitrate=7442.5kbits/s speed=0.0121x    frame=  457 fps=0.4 q=28.0 size=   13856kB time=00:00:15.29 bitrate=7422.0kbits/s speed=0.0121x    frame=  458 fps=0.4 q=28.0 size=   18711kB time=00:00:15.33 bitrate=9996.3kbits/s speed=0.0121x    frame=  459 fps=0.4 q=28.0 size=   18711kB time=00:00:15.37 bitrate=9969.0kbits/s speed=0.0121x    frame=  460 fps=0.4 q=28.0 size=   18711kB time=00:00:15.41 bitrate=9941.8kbits/s speed=0.0121x    frame=  461 fps=0.4 q=28.0 size=   18711kB time=00:00:15.45 bitrate=9915.4kbits/s speed=0.0121x    frame=  462 fps=0.4 q=28.0 size=   18711kB time=00:00:15.50 bitrate=9888.6kbits/s speed=0.0121x    frame=  463 fps=0.4 q=28.0 size=   18711kB time=00:00:15.54 bitrate=9861.8kbits/s speed=0.0121x    frame=  464 fps=0.4 q=28.0 size=   18711kB time=00:00:15.58 bitrate=9835.9kbits/s speed=0.0121x    frame=  465 fps=0.4 q=28.0 size=   18711kB time=00:00:15.62 bitrate=9809.5kbits/s speed=0.0122x    frame=  466 fps=0.4 q=28.0 size=   18711kB time=00:00:15.66 bitrate=9783.2kbits/s speed=0.0122x    frame=  467 fps=0.4 q=28.0 size=   18711kB time=00:00:15.70 bitrate=9757.6kbits/s speed=0.0121x    frame=  468 fps=0.4 q=28.0 size=   18711kB time=00:00:15.75 bitrate=9731.6kbits/s speed=0.0122x    frame=  469 fps=0.4 q=28.0 size=   18711kB time=00:00:15.79 bitrate=9705.7kbits/s speed=0.0122x    frame=  470 fps=0.4 q=27.0 size=   18711kB time=00:00:15.83 bitrate=9680.6kbits/s speed=0.0121x    frame=  471 fps=0.4 q=27.0 size=   18711kB time=00:00:15.87 bitrate=9655.0kbits/s speed=0.0122x    frame=  472 fps=0.4 q=27.0 size=   18711kB time=00:00:15.91 bitrate=9629.5kbits/s speed=0.0122x    frame=  476 fps=0.4 q=27.0 size=   18711kB time=00:00:16.08 bitrate=9530.1kbits/s speed=0.0122x    frame=  477 fps=0.4 q=27.0 size=   18711kB time=00:00:16.12 bitrate=9505.3kbits/s speed=0.0122x    frame=  478 fps=0.4 q=27.0 size=   18711kB time=00:00:16.16 bitrate=9480.6kbits/s speed=0.0122x    frame=  479 fps=0.4 q=27.0 size=   18711kB time=00:00:16.20 bitrate=9456.6kbits/s speed=0.0122x    frame=  480 fps=0.4 q=27.0 size=   18711kB time=00:00:16.25 bitrate=9432.2kbits/s speed=0.0122x    frame=  481 fps=0.4 q=27.0 size=   18711kB time=00:00:16.29 bitrate=9407.9kbits/s speed=0.0122x    frame=  482 fps=0.4 q=27.0 size=   18711kB time=00:00:16.33 bitrate=9384.3kbits/s speed=0.0122x    frame=  483 fps=0.4 q=27.0 size=   18711kB time=00:00:16.37 bitrate=9360.2kbits/s speed=0.0122x    frame=  484 fps=0.4 q=27.0 size=   18711kB time=00:00:16.41 bitrate=9336.3kbits/s speed=0.0122x    frame=  485 fps=0.4 q=27.0 size=   18711kB time=00:00:16.45 bitrate=9313.0kbits/s speed=0.0122x    frame=  487 fps=0.4 q=28.0 size=   18711kB time=00:00:16.54 bitrate=9265.7kbits/s speed=0.0122x    frame=  488 fps=0.4 q=28.0 size=   18711kB time=00:00:16.58 bitrate=9242.8kbits/s speed=0.0122x    frame=  489 fps=0.4 q=28.0 size=   18711kB time=00:00:16.62 bitrate=9219.5kbits/s speed=0.0122x    frame=  490 fps=0.4 q=28.0 size=   18711kB time=00:00:16.66 bitrate=9196.2kbits/s speed=0.0121x    frame=  491 fps=0.4 q=28.0 size=   18711kB time=00:00:16.70 bitrate=9173.7kbits/s speed=0.0122x    frame=  492 fps=0.4 q=28.0 size=   18711kB time=00:00:16.75 bitrate=9150.7kbits/s speed=0.0122x    frame=  493 fps=0.4 q=28.0 size=   18711kB time=00:00:16.79 bitrate=9127.8kbits/s speed=0.0122x    frame=  494 fps=0.4 q=28.0 size=   18711kB time=00:00:16.83 bitrate=9105.5kbits/s speed=0.0122x    frame=  495 fps=0.4 q=28.0 size=   18711kB time=00:00:16.87 bitrate=9082.9kbits/s speed=0.0122x    frame=  496 fps=0.4 q=28.0 size=   18711kB time=00:00:16.91 bitrate=9060.3kbits/s speed=0.0122x    frame=  497 fps=0.4 q=28.0 size=   18711kB time=00:00:16.95 bitrate=9038.4kbits/s speed=0.0122x    frame=  498 fps=0.4 q=28.0 size=   18711kB time=00:00:17.00 bitrate=9016.1kbits/s speed=0.0122x    frame=  499 fps=0.4 q=28.0 size=   18711kB time=00:00:17.04 bitrate=8993.9kbits/s speed=0.0122x    frame=  500 fps=0.4 q=28.0 size=   18711kB time=00:00:17.08 bitrate=8972.3kbits/s speed=0.0122x    frame=  500 fps=0.3 q=-1.0 Lsize=   26675kB time=00:00:20.70 bitrate=10552.0kbits/s speed=0.0128x    
video:26670kB audio:0kB subtitle:0kB other streams:0kB global headers:0kB muxing overhead: 0.017836%
bench: utime=6145.900s
bench: maxrss=4187392kB
[libx264 @ 0x31471c0] frame I:3     Avg QP:21.91  size:279752
[libx264 @ 0x31471c0] frame P:267   Avg QP:29.92  size: 70012
[libx264 @ 0x31471c0] frame B:230   Avg QP:29.53  size: 33814
[libx264 @ 0x31471c0] consecutive B-frames: 34.8% 13.6% 12.0% 16.0% 14.0%  9.6%  0.0%  0.0%  0.0%  0.0%  0.0%  0.0%  0.0%  0.0%  0.0%  0.0%  0.0%
[libx264 @ 0x31471c0] mb I  I16..4: 11.7% 74.3% 14.0%
[libx264 @ 0x31471c0] mb P  I16..4: 16.5% 14.3%  1.5%  P16..4: 30.8% 18.4%  2.8%  0.1%  0.0%    skip:15.5%
[libx264 @ 0x31471c0] mb B  I16..4:  1.2%  2.3%  0.1%  B16..8: 29.8%  7.9%  0.9%  direct: 1.3%  skip:56.4%  L0:42.3% L1:53.9% BI: 3.8%
[libx264 @ 0x31471c0] final ratefactor: 25.07
[libx264 @ 0x31471c0] 8x8 transform intra:46.8% inter:86.2%
[libx264 @ 0x31471c0] direct mvs  spatial:98.7% temporal:1.3%
[libx264 @ 0x31471c0] coded y,uvDC,uvAC intra: 19.0% 22.1% 2.2% inter: 6.3% 5.9% 0.1%
[libx264 @ 0x31471c0] i16 v,h,dc,p:  7% 15%  3% 75%
[libx264 @ 0x31471c0] i8 v,h,dc,ddl,ddr,vr,hd,vl,hu: 10%  8% 17%  7% 10% 10% 12% 10% 16%
[libx264 @ 0x31471c0] i4 v,h,dc,ddl,ddr,vr,hd,vl,hu: 16% 11% 44%  3%  6%  5%  6%  3%  6%
[libx264 @ 0x31471c0] i8c dc,h,v,p: 22% 41% 14% 22%
[libx264 @ 0x31471c0] Weighted P-Frames: Y:3.0% UV:2.6%
[libx264 @ 0x31471c0] ref P L0: 61.6% 18.6%  9.2%  3.0%  1.8%  1.3%  1.1%  0.7%  0.5%  0.5%  0.4%  0.3%  0.3%  0.3%  0.2%  0.2%
[libx264 @ 0x31471c0] ref B L0: 90.0%  5.0%  1.9%  0.9%  0.6%  0.4%  0.3%  0.2%  0.2%  0.1%  0.1%  0.1%  0.1%  0.1%  0.0%
[libx264 @ 0x31471c0] ref B L1: 98.6%  1.4%
[libx264 @ 0x31471c0] kb/s:10486.93
